<svg width="397" height="50" viewBox="0 0 397 50" fill="none" xmlns="http://www.w3.org/2000/svg">
<g filter="url(#filter0_d_2071_4316)">
<mask id="path-1-inside-1_2071_4316" fill="white">
<path d="M10 2H6V46H10V2Z"/>
</mask>
<path d="M10 2H6V46H10V2Z" fill="#FECD34"/>
<path d="M10 2V4H6V2V0H10V2ZM6 46V44H10V46V48H6V46Z" fill="#091A24" mask="url(#path-1-inside-1_2071_4316)"/>
<mask id="path-3-inside-2_2071_4316" fill="white">
<path d="M6 4H4V44H6V4Z"/>
</mask>
<path d="M6 4H4V44H6V4Z" fill="#FECD34"/>
<path d="M6 4V6H4V4V2H6V4ZM4 44V42H6V44V46H4V44Z" fill="#091A24" mask="url(#path-3-inside-2_2071_4316)"/>
<mask id="path-5-inside-3_2071_4316" fill="white">
<path d="M4 6H2V42H4V6Z"/>
</mask>
<path d="M4 6H2V42H4V6Z" fill="#FECD34"/>
<path d="M4 6V10H2V6V2H4V6ZM2 42V38H4V42V46H2V42Z" fill="#091A24" mask="url(#path-5-inside-3_2071_4316)"/>
<mask id="path-7-inside-4_2071_4316" fill="white">
<path d="M2 10H0V38H2V10Z"/>
</mask>
<path d="M2 10H0V38H2V10Z" fill="#091A24"/>
<path d="M2 10V14H0V10V6H2V10ZM0 38V34H2V38V42H0V38Z" fill="#091A24" mask="url(#path-7-inside-4_2071_4316)"/>
<mask id="path-9-inside-5_2071_4316" fill="white">
<path d="M10 0H387V48H10V0Z"/>
</mask>
<path d="M10 0H387V48H10V0Z" fill="#FECD34"/>
<path d="M10 0V2H387V0V-2H10V0ZM387 48V46H10V48V50H387V48Z" fill="#091A24" mask="url(#path-9-inside-5_2071_4316)"/>
<path d="M30 30V28H28V26H26V20H28V18H30V16H38V18H40V20H36V18H32V20H30V26H32V28H36V26H40V28H38V30H30ZM43.648 30V28H41.648V22H43.648V20H53.648V22H55.648V28H53.648V30H43.648ZM45.648 28H51.648V22H45.648V28ZM57.296 30V20H69.296V22H71.296V30H67.296V22H61.296V30H57.296ZM72.944 30V20H84.944V22H86.944V30H82.944V22H76.944V30H72.944ZM90.592 30V28H88.592V22H90.592V20H100.592V22H102.592V26H92.592V28H100.592V30H90.592ZM92.592 24H98.592V22H92.592V24ZM106.24 30V28H104.24V22H106.24V20H118.24V22H108.24V28H118.24V30H106.24ZM125.888 30V22H121.888V20H125.888V16H129.888V20H133.888V22H129.888V30H125.888ZM151.184 30V16H163.184V18H165.184V24H163.184V26H155.184V30H151.184ZM155.184 24H161.184V18H155.184V24ZM166.832 30V16H170.832V20H178.832V22H180.832V30H176.832V22H170.832V30H166.832ZM184.48 30V28H182.48V26H184.48V24H192.48V22H184.48V20H194.48V22H196.48V30H184.48ZM186.48 28H192.48V26H186.48V28ZM198.128 30V20H210.128V22H212.128V30H208.128V22H202.128V30H198.128ZM219.776 30V22H215.776V20H219.776V16H223.776V20H227.776V22H223.776V30H219.776ZM231.424 30V28H229.424V22H231.424V20H241.424V22H243.424V28H241.424V30H231.424ZM233.424 28H239.424V22H233.424V28ZM245.072 30V20H257.072V22H259.072V30H255.072V22H253.072V30H249.072V22H247.072V30H245.072ZM278.368 30V28H276.368V16H280.368V24H282.368V16H284.368V24H286.368V16H290.368V28H288.368V30H286.368V28H284.368V26H282.368V28H280.368V30H278.368ZM294.016 30V28H292.016V26H294.016V24H302.016V22H294.016V20H304.016V22H306.016V30H294.016ZM296.016 28H302.016V26H296.016V28ZM309.664 30V28H313.664V18H311.664V16H317.664V28H321.664V30H309.664ZM325.312 30V28H329.312V18H327.312V16H333.312V28H337.312V30H325.312ZM340.96 30V28H338.96V22H340.96V20H350.96V22H352.96V26H342.96V28H350.96V30H340.96ZM342.96 24H348.96V22H342.96V24ZM360.608 30V22H356.608V20H360.608V16H364.608V20H368.608V22H364.608V30H360.608Z" fill="#091A24"/>
<rect x="8" y="42" width="379" height="4" fill="#EFB400"/>
<rect x="8" y="2" width="379" height="2" fill="#FFE595"/>
<rect x="6" y="4" width="381" height="2" fill="#FFE595"/>
<rect x="10" y="6" width="2" height="4" transform="rotate(90 10 6)" fill="#FFE595"/>
<rect x="10" y="42" width="2" height="4" transform="rotate(90 10 42)" fill="#EFB400"/>
<mask id="path-17-inside-6_2071_4316" fill="white">
<path d="M387 2H391V46H387V2Z"/>
</mask>
<path d="M387 2H391V46H387V2Z" fill="#FECD34"/>
<path d="M387 2V4H391V2V0H387V2ZM391 46V44H387V46V48H391V46Z" fill="#091A24" mask="url(#path-17-inside-6_2071_4316)"/>
<mask id="path-19-inside-7_2071_4316" fill="white">
<path d="M391 4H393V44H391V4Z"/>
</mask>
<path d="M391 4H393V44H391V4Z" fill="#FECD34"/>
<path d="M391 4V6H393V4V2H391V4ZM393 44V42H391V44V46H393V44Z" fill="#091A24" mask="url(#path-19-inside-7_2071_4316)"/>
<mask id="path-21-inside-8_2071_4316" fill="white">
<path d="M393 6H395V42H393V6Z"/>
</mask>
<path d="M393 6H395V42H393V6Z" fill="#FECD34"/>
<path d="M393 6V10H395V6V2H393V6ZM395 42V38H393V42V46H395V42Z" fill="#091A24" mask="url(#path-21-inside-8_2071_4316)"/>
<mask id="path-23-inside-9_2071_4316" fill="white">
<path d="M395 10H397V38H395V10Z"/>
</mask>
<path d="M395 10H397V38H395V10Z" fill="#091A24"/>
<path d="M395 10V14H397V10V6H395V10ZM397 38V34H395V38V42H397V38Z" fill="#091A24" mask="url(#path-23-inside-9_2071_4316)"/>
<rect width="4" height="4" transform="matrix(-1 0 0 1 391 40)" fill="#EFB400"/>
<rect width="4" height="4" transform="matrix(-1 0 0 1 393 38)" fill="#EFB400"/>
<rect width="4" height="28" transform="matrix(-1 0 0 1 395 10)" fill="#EFB400"/>
<rect width="2" height="28" transform="matrix(-1 0 0 1 393 6)" fill="#EFB400"/>
<rect width="4" height="2" transform="matrix(-1 0 0 1 391 4)" fill="#FFE595"/>
<path d="M6 42H4V38H2V10H4V6H6V42Z" fill="#FFE595"/>
</g>
<defs>
<filter id="filter0_d_2071_4316" x="0" y="0" width="397" height="50" filterUnits="userSpaceOnUse" color-interpolation-filters="sRGB">
<feFlood flood-opacity="0" result="BackgroundImageFix"/>
<feColorMatrix in="SourceAlpha" type="matrix" values="0 0 0 0 0 0 0 0 0 0 0 0 0 0 0 0 0 0 127 0" result="hardAlpha"/>
<feOffset dy="2"/>
<feComposite in2="hardAlpha" operator="out"/>
<feColorMatrix type="matrix" values="0 0 0 0 0.0352941 0 0 0 0 0.101961 0 0 0 0 0.141176 0 0 0 1 0"/>
<feBlend mode="normal" in2="BackgroundImageFix" result="effect1_dropShadow_2071_4316"/>
<feBlend mode="normal" in="SourceGraphic" in2="effect1_dropShadow_2071_4316" result="shape"/>
</filter>
</defs>
</svg>
